<?xml version="1.0" encoding="utf-8"?>
<!-- Generator: Adobe Illustrator 22.1.0, SVG Export Plug-In . SVG Version: 6.00 Build 0)  -->
<svg version="1.1" id="Ebene_1" xmlns="http://www.w3.org/2000/svg" xmlns:xlink="http://www.w3.org/1999/xlink" x="0px" y="0px"
	 viewBox="0 0 1400 980" style="enable-background:new 0 0 1400 980;" xml:space="preserve">
<style type="text/css">
	.st0{fill:#F47932;}
	.st1{fill:none;}
	.st2{fill:#FFFFFF;}
</style>
<circle class="st0" cx="747.1" cy="493.8" r="477.9"/>
<g>
	<rect x="694.1" y="661.9" class="st1" width="31.4" height="14.9"/>
	<rect x="772" y="661.9" class="st1" width="31.4" height="14.9"/>
	<path class="st2" d="M740.5,723h10.2v-11.4h-10.2v-5.5v-8.8v-1.8h10.2v-11.4h-10.2v-5.5v-8.3v-1.8h10.2V657h-10.2v-5.5v-8.8v-1.8
		h10.2v-11.4h-10.2v-10.2h-67.8v115.2h67.8V723z M686.1,684.7V654h47.2v30.7H686.1z"/>
	<path class="st2" d="M745.2,619.5v5.3h10.2v21h-10.2v5.7v0.6h10.2v21h-10.2v5.7v0.6h10.2v21h-10.2v5.7v0.6h10.2v21h-10.2v7.1h78
		V619.5L745.2,619.5L745.2,619.5z M811.3,684.7h-47.2V654h47.2V684.7z"/>
	<path class="st2" d="M679.8,542c0,10.4,8.3,18.7,18.7,18.7h98.5c10.4,0,18.7-8.3,18.7-18.7V363.8c0-10.4-8.3-18.7-18.7-18.7h-98.5
		c-10.4,0-18.7,8.3-18.7,18.7V542z M717.1,467.7h5.1v-16.9c0-5.1,2.6-9.8,6.9-12.4l15.9-9.8v-32c-7.1-1.4-12.4-7.7-12.4-15.1
		c0-8.6,6.9-15.5,15.5-15.5s15.5,6.9,15.5,15.5c0,7.5-5.3,13.8-12.4,15.1v15.9l15.9,9.8c4.3,2.6,6.9,7.3,6.9,12.4v14.3
		c3.3,1.2,5.5,4.3,5.5,7.9c0,4.7-3.9,8.3-8.3,8.3c-4.7,0-8.3-3.9-8.3-8.3c0-3.7,2.2-6.7,5.5-7.9v-14.3c0-3.1-1.4-5.7-4.1-7.1
		l-12.6-7.7v72.7h9.2l-12.2,20l-12.2-20h9.2v-56.6l-12.6,7.7c-2.4,1.6-4.1,4.3-4.1,7.1v16.9h5.1v16.1h-16.1v-16.1H717.1z"/>
	<path class="st2" d="M803.4,257.8h-111c-24.4,0-44.4,20-44.4,44.4v309.5H848V302.1C847.8,277.7,827.8,257.8,803.4,257.8z
		 M667.2,363.8c0-17.3,14-31.6,31.6-31.6h98.5c17.3,0,31.6,14,31.6,31.6V542c0,17.3-14,31.6-31.6,31.6h-98.5
		c-17.3,0-31.6-14-31.6-31.6V363.8z"/>
	<path class="st2" d="M821.9,209.9v7.9c34.6,0,63.1,28.1,63.7,62.5l7.9-0.2C893,241.5,860.8,209.9,821.9,209.9z"/>
	<path class="st2" d="M890.3,208.5c-18.3-18.1-42.6-27.9-68.4-27.9v7.9c48.5,0,88.8,39.5,89.6,88l7.9-0.2
		C919,250.6,908.6,226.6,890.3,208.5z"/>
	<path class="st2" d="M821.9,232.1v7.9c26.1,0,47.2,21.2,47.2,47.2h7.9C877.1,256.7,852.5,232.1,821.9,232.1z"/>
</g>
</svg>
