<?xml version="1.0" encoding="utf-8"?>
<!-- Generator: Adobe Illustrator 22.1.0, SVG Export Plug-In . SVG Version: 6.00 Build 0)  -->
<svg version="1.1" id="Ebene_1" xmlns="http://www.w3.org/2000/svg" xmlns:xlink="http://www.w3.org/1999/xlink" x="0px" y="0px"
	 viewBox="0 0 1400 980" style="enable-background:new 0 0 1400 980;" xml:space="preserve">
<style type="text/css">
	.st0{fill:#050505;}
	.st1{font-family:'DeathStar';}
	.st2{font-size:70.2619px;}
	.st3{font-family:'BebasNeue';}
	.st4{font-size:33.8592px;}
</style>
<rect x="694.1" y="588.1" class="st0" width="31.4" height="14.9"/>
<rect x="772" y="588.1" class="st0" width="31.4" height="14.9"/>
<path class="st0" d="M740.5,649.2h10.2v-11.4h-10.2v-5.5v-8.8v-1.8h10.2v-11.4h-10.2v-5.5v-8.3v-1.8h10.2v-11.4h-10.2v-5.5V569v-1.8
	h10.2v-11.4h-10.2v-10.2h-67.8v115.2h67.8V649.2z M686.1,610.9v-30.7h47.2v30.7H686.1z"/>
<path class="st0" d="M745.2,545.8v5.3h10.2v21h-10.2v5.7v0.6h10.2v21h-10.2v5.7v0.6h10.2v21h-10.2v5.7v0.6h10.2v21h-10.2v7.1h78
	V545.8H745.2L745.2,545.8z M811.3,610.9h-47.2v-30.7h47.2V610.9z"/>
<path class="st0" d="M679.8,468.2c0,10.4,8.3,18.7,18.7,18.7H797c10.4,0,18.7-8.3,18.7-18.7V290c0-10.4-8.3-18.7-18.7-18.7h-98.5
	c-10.4,0-18.7,8.3-18.7,18.7V468.2z M717.1,393.9h5.1V377c0-5.1,2.6-9.8,6.9-12.4l15.9-9.8v-32c-7.1-1.4-12.4-7.7-12.4-15.1
	c0-8.6,6.9-15.5,15.5-15.5s15.5,6.9,15.5,15.5c0,7.5-5.3,13.8-12.4,15.1v15.9l15.9,9.8c4.3,2.6,6.9,7.3,6.9,12.4v14.3
	c3.3,1.2,5.5,4.3,5.5,7.9c0,4.7-3.9,8.3-8.3,8.3c-4.7,0-8.3-3.9-8.3-8.3c0-3.7,2.2-6.7,5.5-7.9v-14.3c0-3.1-1.4-5.7-4.1-7.1
	l-12.6-7.7v72.7h9.2l-12.2,20l-12.2-20h9.2v-56.6l-12.6,7.7c-2.4,1.6-4.1,4.3-4.1,7.1v16.9h5.1V410H718v-16.1H717.1z"/>
<path class="st0" d="M803.4,184h-111c-24.4,0-44.4,20-44.4,44.4v309.5h200V228.3C847.8,203.9,827.8,184,803.4,184z M667.2,290
	c0-17.3,14-31.6,31.6-31.6h98.5c17.3,0,31.6,14,31.6,31.6v178.1c0,17.3-14,31.6-31.6,31.6h-98.5c-17.3,0-31.6-14-31.6-31.6V290z"/>
<path class="st0" d="M821.9,136.1v7.9c34.6,0,63.1,28.1,63.7,62.5l7.9-0.2C893,167.7,860.8,136.1,821.9,136.1z"/>
<path class="st0" d="M890.3,134.7c-18.3-18.1-42.6-27.9-68.4-27.9v7.9c48.5,0,88.8,39.5,89.6,88l7.9-0.2
	C919,176.8,908.6,152.8,890.3,134.7z"/>
<path class="st0" d="M818.9,158.3v7.9c26.1,0,47.2,21.2,47.2,47.2h7.9C874.1,182.9,849.5,158.3,818.9,158.3z"/>
<text transform="matrix(1 0 0 1 570.0762 758.3242)" class="st0 st1 st2">Save&amp;Send</text>
<text transform="matrix(1 0 0 1 637.3747 811.418)" class="st0 st3 st4">your cloud storage</text>
</svg>
